<svg width="123" height="121" viewBox="0 0 123 121" fill="none" xmlns="http://www.w3.org/2000/svg">
<path d="M32.5001 0L25.4923 25.9973L32.9852 37.6348L37.2708 29.9977L47.3782 38.0245L52.095 23.6075L32.5001 0ZM78.2395 11.3518L69.5606 23.9192L72.4446 30.5432L78.3473 24.9063L83.2259 36.0243L86.002 30.3874L78.2395 11.3518ZM55.7606 28.0235L49.8579 46.0253L38.7263 37.2192L33.3087 46.9345L23.8212 32.2057L0 120.37H34.0903C46.3809 115.954 70.5579 105.641 71.07 92.7571C71.5282 80.3403 41.718 81.4833 41.2059 69.0665C40.8016 58.9097 63.9813 47.8956 63.9813 47.8956C63.9813 47.8956 49.3997 59.1434 51.2055 66.3389C54.6825 80.1065 85.0587 73.5085 89.8024 86.9384C93.3063 96.8614 80.7731 114.032 75.7329 120.37H122.685L88.4278 36.362L83.0102 47.454L76.6762 33.063L70.7196 38.7518L66.3263 28.595L61.7442 35.219L55.7606 28.0235Z" fill="white"/>
</svg>
