<svg width="45" height="45" viewBox="0 0 45 45" fill="none" xmlns="http://www.w3.org/2000/svg">
<path d="M36.5625 5.625H8.4375C7.69158 5.625 6.97621 5.92132 6.44876 6.44876C5.92132 6.97621 5.625 7.69158 5.625 8.4375V36.5625C5.625 37.3084 5.92132 38.0238 6.44876 38.5512C6.97621 39.0787 7.69158 39.375 8.4375 39.375H36.5625C37.3084 39.375 38.0238 39.0787 38.5512 38.5512C39.0787 38.0238 39.375 37.3084 39.375 36.5625V8.4375C39.375 7.69158 39.0787 6.97621 38.5512 6.44876C38.0238 5.92132 37.3084 5.625 36.5625 5.625V5.625ZM22.5 11.25C22.9172 11.25 23.325 11.3737 23.6719 11.6055C24.0188 11.8373 24.2892 12.1667 24.4488 12.5522C24.6085 12.9376 24.6502 13.3617 24.5688 13.7709C24.4875 14.1801 24.2866 14.5559 23.9916 14.8509C23.6966 15.1459 23.3207 15.3468 22.9115 15.4282C22.5023 15.5096 22.0782 15.4678 21.6928 15.3082C21.3073 15.1485 20.9779 14.8782 20.7461 14.5313C20.5143 14.1844 20.3906 13.7766 20.3906 13.3594C20.3906 12.7999 20.6129 12.2634 21.0084 11.8678C21.404 11.4722 21.9406 11.25 22.5 11.25ZM28.125 33.9258H16.875V30.7617H20.918V22.6758H18.2812V19.5117H24.082V30.7617H28.125V33.9258Z" fill="#898080"/>
</svg>
