<svg width="70" height="70" viewBox="0 0 70 70" fill="none" xmlns="http://www.w3.org/2000/svg">
<path fill-rule="evenodd" clip-rule="evenodd" d="M20.5703 0.21C24.3036 0.0388818 25.4936 0 35 0C44.5082 0 45.6963 0.0408227 49.4276 0.21C53.1551 0.379177 55.7006 0.972236 57.9269 1.8375C60.262 2.71667 62.3773 4.09417 64.1257 5.87418C65.906 7.62236 67.2837 9.73783 68.1625 12.0731C69.0276 14.2994 69.6188 16.8447 69.79 20.5703C69.9612 24.3036 70 25.4936 70 35C70 44.5063 69.9593 45.6963 69.79 49.4299C69.6207 53.1551 69.0276 55.7006 68.1625 57.9269C67.2681 60.2274 66.0701 62.1813 64.1257 64.1257C62.3776 65.906 60.262 67.2837 57.9269 68.1625C55.7006 69.0276 53.1551 69.6188 49.4299 69.79C45.6963 69.9612 44.5063 70 35 70C25.4936 70 24.3036 69.9593 20.5703 69.79C16.8447 69.6207 14.2994 69.0276 12.0731 68.1625C9.77276 67.2681 7.81862 66.0701 5.87418 64.1257C4.09385 62.3776 2.71625 60.262 1.8375 57.9269C0.972236 55.7006 0.381118 53.1551 0.21 49.4299C0.0388818 45.6963 0 44.5082 0 35C0 25.4917 0.0408227 24.3036 0.21 20.5722C0.379177 16.8447 0.972236 14.2994 1.8375 12.0731C2.71667 9.73799 4.09417 7.62262 5.87418 5.87418C7.62233 4.09385 9.7378 2.71625 12.0731 1.8375C14.2994 0.972236 16.8447 0.381118 20.5703 0.21V0.21ZM49.1438 6.51C45.4532 6.34276 44.345 6.30582 35 6.30582C25.655 6.30582 24.5467 6.34276 20.8561 6.51C17.4436 6.66556 15.5906 7.23526 14.3578 7.71556C12.7244 8.34944 11.5578 9.10776 10.3328 10.3328C9.10974 11.5578 8.34944 12.7244 7.71556 14.3578C7.23526 15.5906 6.66556 17.4436 6.51 20.8561C6.34276 24.5467 6.30582 25.655 6.30582 35C6.30582 44.345 6.34276 45.4532 6.51 49.1438C6.66556 52.5563 7.23526 54.4094 7.71556 55.6424C8.27626 57.1626 9.1706 58.5378 10.3328 59.6674C11.462 60.8294 12.8374 61.7238 14.3578 62.2844C15.5906 62.7649 17.4436 63.3344 20.8561 63.49C24.5467 63.6574 25.6531 63.6943 35 63.6943C44.3469 63.6943 45.4532 63.6574 49.1438 63.49C52.5563 63.3344 54.4094 62.7649 55.6424 62.2844C57.2756 61.6506 58.4424 60.8924 59.6674 59.6674C60.8294 58.5381 61.7238 57.1626 62.2844 55.6424C62.7649 54.4094 63.3344 52.5563 63.49 49.1438C63.6574 45.4532 63.6943 44.345 63.6943 35C63.6943 25.655 63.6574 24.5467 63.49 20.8561C63.3344 17.4436 62.7649 15.5906 62.2844 14.3578C61.6506 12.7244 60.8924 11.5578 59.6674 10.3328C58.4424 9.10974 57.2756 8.34944 55.6424 7.71556C54.4094 7.23526 52.5563 6.66556 49.1438 6.51V6.51ZM30.5311 45.7892C31.948 46.3763 33.4664 46.6782 35 46.6782C38.0975 46.6782 41.0677 45.4478 43.2578 43.2578C45.4481 41.0677 46.6785 38.0972 46.6785 35C46.6785 31.9028 45.4481 28.9323 43.2578 26.7422C41.0677 24.5521 38.0975 23.3216 35 23.3216C33.4664 23.3216 31.948 23.6237 30.5311 24.2106C29.114 24.7975 27.8267 25.6577 26.7423 26.7422C25.6578 27.8266 24.7976 29.114 24.2107 30.5308C23.6238 31.9477 23.3218 33.4664 23.3218 35C23.3218 36.5336 23.6238 38.0523 24.2107 39.4692C24.7976 40.886 25.6578 42.1734 26.7423 43.2578C27.8267 44.3421 29.114 45.2025 30.5311 45.7892V45.7892ZM22.2793 22.2791C25.653 18.9053 30.2289 17.01 35 17.01C39.7715 17.01 44.3472 18.9053 47.7209 22.2791C51.0946 25.6529 52.99 30.2289 52.99 35C52.99 39.7711 51.0946 44.3469 47.7209 47.7209C44.3472 51.0946 39.7715 52.99 35 52.99C30.2289 52.99 25.653 51.0946 22.2793 47.7209C18.9055 44.3469 17.0101 39.7711 17.0101 35C17.0101 30.2289 18.9055 25.6529 22.2793 22.2791V22.2791ZM56.979 19.6903C57.7764 18.8928 58.2244 17.8112 58.2244 16.6833C58.2244 15.5555 57.7764 14.4738 56.979 13.6763C56.1814 12.8789 55.0999 12.4308 53.9719 12.4308C52.8443 12.4308 51.7625 12.8789 50.9651 13.6763C50.1674 14.4738 49.7194 15.5555 49.7194 16.6833C49.7194 17.8112 50.1674 18.8928 50.9651 19.6903C51.7625 20.4878 52.8443 20.9358 53.9719 20.9358C55.0999 20.9358 56.1814 20.4878 56.979 19.6903Z" fill="white"/>
</svg>
