<svg width="70" height="70" viewBox="0 0 70 70" fill="none" xmlns="http://www.w3.org/2000/svg">
<path d="M64.8151 0H5.16736C2.31486 0 0 2.26042 0 5.04389V64.9493C0 67.7367 2.31486 70 5.16736 70H64.8151C67.6696 70 70 67.7367 70 64.9493V5.04389C70 2.26042 67.6696 0 64.8151 0V0ZM20.7608 59.6497H10.3736V26.2451H20.7608V59.6497ZM15.5672 21.6776C12.2393 21.6776 9.54917 18.9807 9.54917 15.6557C9.54917 12.3356 12.2393 9.63861 15.5672 9.63861C18.8874 9.63861 21.5843 12.3356 21.5843 15.6557C21.5843 18.9807 18.8874 21.6776 15.5672 21.6776ZM59.6458 59.6497H49.2751V43.4058C49.2751 39.5306 49.1993 34.5479 43.8783 34.5479C38.4747 34.5479 37.6513 38.7683 37.6513 43.1249V59.6507H27.2728V26.2451H37.2332V30.8068H37.3751C38.7615 28.1818 42.1487 25.4119 47.2004 25.4119C57.7062 25.4119 59.6468 32.3283 59.6468 41.3262V59.6497H59.6458Z" fill="#F3F3F3"/>
</svg>
