<svg width="71" height="54" viewBox="0 0 71 54" fill="none" xmlns="http://www.w3.org/2000/svg">
<path d="M33.4659 33.5841C34.4011 34.4004 35.6858 34.4004 36.6221 33.5841L69.7042 3.0319C70.2887 1.86578 70.1706 0 67.8326 0L2.36994 0.11661C0.616475 0.11661 -0.786298 1.74917 0.499576 3.14851L33.4659 33.5841Z" fill="white"/>
<path d="M69.9147 16.0924C69.9147 14.5765 68.048 13.7602 66.998 14.8097L41.3314 38.5984C39.5814 40.231 37.3647 41.0473 35.0314 41.0473C32.698 41.0473 30.4814 40.231 28.7314 38.5973L2.94804 14.8097C1.78137 13.7602 0.0313721 14.5765 0.0313721 16.0924V46.4114C0.0313721 50.2596 3.18137 53.4081 7.03137 53.4081H63.0314C66.8825 53.4081 70.0314 50.2596 70.0314 46.4114C69.9147 46.4114 69.9147 25.4213 69.9147 16.0924Z" fill="white"/>
</svg>
