<svg width="259" height="260" viewBox="0 0 259 260" fill="none" xmlns="http://www.w3.org/2000/svg">
<path d="M136.767 35.556C139.326 37.0625 142.387 37.8956 145.573 37.8956C145.806 37.8956 146.039 37.8913 146.276 37.8783C148.896 38.7848 151.737 39.2553 154.616 39.2553C157.53 39.2553 160.383 38.7762 163.02 37.8524C163.392 37.8826 163.763 37.8956 164.134 37.8956C165.002 37.8956 165.822 37.7229 166.646 37.5805C164.466 38.9057 162.511 40.4726 161.022 42.3676C153.537 44.1762 148.193 49.9734 148.193 57.0354C148.193 65.5909 156.023 72.2945 166.025 72.2945C167.479 72.2945 168.921 72.1478 170.32 71.8542C172.651 72.8212 175.223 73.3478 177.882 73.3823C181.012 75.5708 185 76.8226 189.205 76.8226C190.293 76.8226 191.376 76.7363 192.442 76.5636C197.216 78.5018 202.517 79.5162 207.96 79.5162C213.3 79.5162 218.519 78.5406 223.215 76.6888C224.092 76.7795 224.942 76.8226 225.784 76.8226C231.313 76.8226 236.549 75.178 240.59 72.2859C240.78 72.2902 240.974 72.2945 241.164 72.2945C251.165 72.2945 259 65.5909 259 57.0354C259 50.9317 255.011 45.7734 249.093 43.3129C247.138 36.9243 241.285 31.9171 233.489 30.1171C227.178 23.7285 217.306 19.8738 206.799 19.8738C200.389 19.8738 194.333 21.2767 189.175 23.7587C189.175 23.7026 189.192 23.6508 189.192 23.5947C189.192 18.4623 185.79 14.1759 180.861 12.4363C178.78 10.2607 175.944 8.70675 172.711 8.01178C168.8 3.40597 162.338 0.496582 155.207 0.496582C149.112 0.496582 143.488 2.55128 139.508 6.12111C135.334 7.39019 132.066 10.0924 130.387 13.5716C126.795 15.6953 124.469 19.3601 124.469 23.6033C124.469 30.0178 129.791 35.1114 136.767 35.556ZM182.255 42.6827C184.763 34.5761 194.786 28.5113 206.799 28.5113C216.425 28.5113 224.778 32.4049 229.013 38.1287C235.863 38.7762 241.164 42.9503 241.164 48.0612C241.164 48.8856 240.991 49.6756 240.728 50.4482C240.87 50.4439 241.008 50.418 241.164 50.418C246.249 50.418 250.367 53.3835 250.367 57.0397C250.367 60.6958 246.249 63.6657 241.164 63.6657C239.972 63.6657 238.841 63.4887 237.801 63.1951C235.375 66.1779 230.929 68.1938 225.788 68.1938C224.484 68.1938 223.246 68.0254 222.046 67.7837C218.022 69.7434 213.179 70.8873 207.965 70.8873C202.487 70.8873 197.441 69.6139 193.306 67.4729C192.067 67.9218 190.694 68.1938 189.209 68.1938C185.544 68.1938 182.406 66.6441 180.93 64.4124C180.041 64.611 179.121 64.7534 178.146 64.7534C175.383 64.7534 172.944 63.8599 171.256 62.4872C169.767 63.2297 167.967 63.6657 166.025 63.6657C160.94 63.6657 156.826 60.6958 156.826 57.0397C156.826 53.3835 160.94 50.418 166.025 50.418C166.137 50.418 166.245 50.4396 166.357 50.4396C167.73 45.9201 173.307 42.523 179.998 42.523C180.775 42.5186 181.517 42.6007 182.255 42.6827ZM137.768 20.2407C137.85 20.2407 137.915 20.2536 137.988 20.2536C137.859 19.8651 137.768 19.4594 137.768 19.0493C137.768 16.4507 140.462 14.3356 143.937 14.0075C146.082 11.1068 150.317 9.12977 155.207 9.12977C161.298 9.12977 166.383 12.2032 167.656 16.3169C168.028 16.2737 168.407 16.2349 168.8 16.2349C172.193 16.2349 175.02 17.9529 175.72 20.2493C175.78 20.2493 175.836 20.2407 175.888 20.2407C178.474 20.2407 180.559 21.7472 180.559 23.599C180.559 25.4508 178.469 26.9573 175.884 26.9573C174.9 26.9573 173.989 26.7372 173.233 26.3616C172.379 27.0566 171.144 27.5142 169.737 27.5142C169.245 27.5142 168.774 27.4451 168.325 27.3415C167.579 28.4724 165.986 29.2624 164.13 29.2624C163.37 29.2624 162.675 29.1199 162.049 28.8955C159.96 29.9789 157.387 30.6221 154.612 30.6221C151.966 30.6221 149.509 30.0394 147.472 29.0509C146.863 29.1717 146.233 29.2624 145.573 29.2624C142.965 29.2624 140.708 28.2393 139.478 26.7199C138.942 26.871 138.377 26.9573 137.768 26.9573C135.191 26.9573 133.102 25.4551 133.102 23.6033C133.102 21.7515 135.191 20.2407 137.768 20.2407Z" fill="white"/>
<path d="M237.003 159.623C236.55 159.3 191.528 126.666 178.815 114.921C173.191 109.719 164.553 99.5753 156.93 90.627C152.393 85.3003 148.107 80.2672 144.787 76.6671L144.567 76.4168C142.918 74.5391 138.541 69.562 131.419 69.562C129.256 69.562 127.063 70.0369 124.918 70.9822C124.823 71.0297 124.733 71.0642 124.655 71.0944C124.616 71.0772 124.577 71.0642 124.538 71.0469C123.727 70.7448 122.794 70.3994 121.594 70.0584C120.455 69.7433 119.294 69.5836 118.128 69.5836C113.609 69.5836 110.315 71.9103 108.347 73.3002L107.837 73.6628C101.803 77.7938 94.7537 86.3838 88.5335 93.9638C86.6256 96.2947 84.8083 98.5048 83.2025 100.357C82.4212 96.1782 79.3348 92.7983 75.1046 91.3004C73.0326 89.1378 70.2139 87.5924 66.998 86.8932C65.4526 85.0716 63.4929 83.5349 61.2699 82.3176C65.4613 79.2269 68.1117 74.7722 68.1117 69.6699C68.1117 61.1576 60.8727 54.2899 51.0697 52.9172C49.9388 51.6525 48.6395 50.4913 47.1848 49.4553C46.5459 40.9344 39.894 33.8336 29.9659 30.9069C23.1672 23.8018 11.793 19.101 0 18.16V26.7673C10.9383 27.6349 20.2535 32.2019 25.2435 38.6509C32.94 40.1531 38.6077 45.0092 38.6077 50.8323C38.6077 52.0151 38.3012 53.1417 37.8609 54.2295C41.9099 55.7619 44.9876 58.3 46.4553 61.3864C46.7877 61.3648 47.1028 61.313 47.4438 61.313C54.0957 61.313 59.4828 65.0598 59.4828 69.6786C59.4828 74.2973 54.0957 78.0441 47.4438 78.0441C44.3358 78.0441 41.53 77.211 39.3976 75.8599C36.471 77.2369 32.9486 78.0441 29.15 78.0441C24.9456 78.0441 21.1168 77.0211 18.0304 75.3635C12.9412 77.9751 6.72958 79.5463 0 79.7621V88.391C6.31087 88.1881 12.6649 86.9579 18.0909 84.8039C21.5614 86.0385 25.3126 86.6816 29.1543 86.6816C29.6033 86.6816 30.0349 86.5996 30.4752 86.5867C28.0061 88.0284 26.0421 90.027 24.8679 92.4314C21.2895 94.5551 18.9715 98.2113 18.9715 102.442C18.9715 108.852 24.2852 113.937 31.2436 114.386C33.7904 115.879 36.8336 116.704 40.002 116.704C40.2307 116.704 40.4509 116.699 40.6797 116.691C43.2912 117.593 46.1186 118.059 48.9891 118.059C51.8899 118.059 54.7302 117.58 57.3547 116.66C57.7173 116.691 58.0842 116.704 58.4468 116.704C61.0281 116.704 63.4627 116.065 65.5347 114.891C66.5102 114.791 67.4599 114.597 68.375 114.312C68.457 114.321 68.5347 114.316 68.6167 114.325C55.8482 125.531 39.4624 138.869 39.2336 139.055L38.9228 139.314L38.6379 139.59C38.0293 140.194 33.5616 144.796 28.1356 153.882L0 170.985V259.492H258.996V170.985L243.405 163.88L237.003 159.623ZM67.503 105.191C66.6527 105.882 65.4267 106.335 64.0282 106.335C63.5404 106.335 63.0742 106.266 62.6253 106.162C61.8828 107.289 60.2986 108.07 58.4511 108.07C57.7 108.07 57.0094 107.932 56.3835 107.708C54.3072 108.787 51.7517 109.426 48.9934 109.426C46.3603 109.426 43.9214 108.847 41.8883 107.863C41.284 107.984 40.6581 108.07 40.002 108.07C37.4034 108.07 35.163 107.056 33.9414 105.545C33.4105 105.696 32.845 105.787 32.2407 105.787C29.681 105.787 27.6004 104.289 27.6004 102.446C27.6004 100.603 29.6766 99.1091 32.2407 99.1091C32.3184 99.1091 32.3875 99.1221 32.4608 99.1221C32.3314 98.7336 32.2407 98.3365 32.2407 97.9221C32.2407 95.3407 34.917 93.2429 38.3703 92.9148C40.5027 90.0313 44.72 88.063 49.5805 88.063C55.6324 88.063 60.6871 91.1234 61.9519 95.2112C62.3274 95.1638 62.6986 95.1292 63.0915 95.1292C66.467 95.1292 69.2815 96.8386 69.9721 99.1178C70.0325 99.1178 70.0844 99.1091 70.1405 99.1091C72.7088 99.1091 74.7808 100.607 74.7808 102.446C74.7808 104.293 72.7088 105.787 70.1405 105.787C69.1606 105.787 68.2541 105.567 67.503 105.191ZM230.886 176.411C230.886 176.411 218.744 163.927 209.709 163.927C209.407 163.927 209.105 163.94 208.811 163.97C205.065 164.329 205.5 170.199 205.5 170.199C205.5 170.199 191.087 156.36 181.271 153.054C181.073 152.985 180.883 152.954 180.702 152.954C177.896 152.954 177.374 160.625 177.374 160.625C177.374 160.625 171.973 154.815 162.667 154.815C162.339 154.815 162.002 154.823 161.657 154.841L164.851 164.182C164.851 164.182 154.431 152.255 141.088 152.255C140.277 152.255 139.448 152.298 138.615 152.389C129.01 153.477 101.384 169.746 101.384 169.746C101.384 169.746 118.007 148.236 114.157 148.236C113.367 148.236 111.74 149.126 108.947 151.275C106.62 153.062 96.3077 166.638 96.3077 166.638L103.508 151.94L89.8414 165.74L94.5293 155.51L89.8414 157.068C89.8414 157.068 99.7308 144.597 97.7236 140.371C97.6113 140.138 97.443 140.035 97.2185 140.035C94.9134 140.035 86.9364 151.146 81.7694 154.392C72.2945 160.344 57.6612 166.638 57.6612 166.638L69.9548 152.164L50.133 166.638C50.133 166.638 52.7748 156.537 49.5719 156.537C49.546 156.537 49.5244 156.537 49.4985 156.537C44.12 156.787 30.5874 166.638 30.5874 166.638C37.4854 152.656 44.0639 146.156 44.0639 146.156C44.0639 146.156 76.8312 119.514 86.6083 109.21C93.1221 102.347 104.47 86.414 112.137 81.165C113.691 80.1032 115.689 78.4326 118.132 78.4326C118.599 78.4326 119.095 78.4931 119.596 78.6355C122.022 79.3132 123.101 80.0773 124.616 80.0773C125.475 80.0773 126.476 79.8312 127.944 79.188C129.209 78.6312 130.366 78.4024 131.423 78.4024C135.502 78.4024 138.045 81.8082 139.085 82.9392C147.865 92.4659 164.152 112.944 173.592 121.672C186.814 133.901 232.531 167.005 232.531 167.005C232.531 167.005 227.282 171.511 230.886 176.411Z" fill="white"/>
<path d="M82.5203 128.622L87.4844 113.635L71.0942 138.386L82.5203 128.622Z" fill="white"/>
<path d="M95.3887 126.45L110.907 101.22L95.3887 116.363V126.45Z" fill="white"/>
<path d="M165.662 130.102L150.295 104.725L154.948 120.092L165.662 130.102Z" fill="white"/>
<path d="M155.791 139.271L166.504 144.093L151.142 123.908L155.791 139.271Z" fill="white"/>
<path d="M145.021 121.154V111.066L129.498 95.9278L145.021 121.154Z" fill="white"/>
</svg>
