<svg width="291" height="208" viewBox="0 0 291 208" fill="none" xmlns="http://www.w3.org/2000/svg">
<path d="M31.1111 0C14.0567 0 0 14.0567 0 31.1111V176.296C0 193.351 14.0567 207.407 31.1111 207.407H259.259C276.314 207.407 290.37 193.351 290.37 176.296V31.1111C290.37 14.0567 276.314 0 259.259 0H31.1111ZM31.1111 20.7407H259.259C265.133 20.7407 269.63 25.2373 269.63 31.1111V176.296C269.63 182.17 265.133 186.667 259.259 186.667H31.1111C25.2373 186.667 20.7407 182.17 20.7407 176.296V31.1111C20.7407 25.2373 25.2373 20.7407 31.1111 20.7407ZM93.3333 41.4815C70.5266 41.4815 51.8519 60.1563 51.8519 82.963C51.8519 94.5081 56.794 104.919 64.4907 112.454C50.6771 121.811 41.4815 137.732 41.4815 155.556H62.2222C62.2222 138.258 76.0359 124.444 93.3333 124.444C110.631 124.444 124.444 138.258 124.444 155.556H145.185C145.185 137.732 135.99 121.811 122.176 112.454C129.873 104.919 134.815 94.5081 134.815 82.963C134.815 60.1563 116.14 41.4815 93.3333 41.4815ZM165.926 51.8519V72.5926H248.889V51.8519H165.926ZM93.3333 62.2222C104.919 62.2222 114.074 71.3773 114.074 82.963C114.074 94.5486 104.919 103.704 93.3333 103.704C81.7477 103.704 72.5926 94.5486 72.5926 82.963C72.5926 71.3773 81.7477 62.2222 93.3333 62.2222ZM165.926 93.3334V114.074H248.889V93.3334H165.926ZM165.926 134.815V155.556H217.778V134.815H165.926Z" fill="black"/>
</svg>
