<svg width="291" height="484" viewBox="0 0 291 484" fill="none" xmlns="http://www.w3.org/2000/svg">
<path d="M235.926 0C265.995 0 290.37 24.3756 290.37 54.4445V429.506C290.37 459.575 265.995 483.951 235.926 483.951H54.4445C24.3756 483.951 0 459.575 0 429.506V54.4445C0 24.3756 24.3756 0 54.4445 0H235.926ZM186.668 277.668L145.177 320.004L103.623 277.659C96.6023 270.505 85.112 270.397 77.9583 277.417C70.8046 284.438 70.6963 295.928 77.7165 303.082L132.232 358.634C139.349 365.887 151.034 365.883 158.147 358.626L212.591 303.073C219.607 295.915 219.491 284.425 212.332 277.409C205.174 270.394 193.684 270.509 186.668 277.668V277.668ZM212.591 181.986L158.147 126.433C151.681 119.836 141.436 119.233 134.28 124.627L132.232 126.425L77.7165 181.977C70.6963 189.131 70.8046 200.621 77.9583 207.641C84.4617 214.023 94.549 214.514 101.604 209.176L103.623 207.4L145.177 165.055L186.668 207.391C193.684 214.549 205.174 214.665 212.332 207.65C218.84 201.272 219.527 191.196 214.328 184.039L212.591 181.986L158.147 126.433L212.591 181.986Z" fill="#212121"/>
</svg>
