<svg width="57" height="57" viewBox="0 0 57 57" fill="none" xmlns="http://www.w3.org/2000/svg">
<path fill-rule="evenodd" clip-rule="evenodd" d="M31.35 2.85C31.35 2.09413 31.0497 1.36922 30.5153 0.834746C29.9808 0.300267 29.2559 0 28.5 0C27.7441 0 27.0192 0.300267 26.4847 0.834746C25.9503 1.36922 25.65 2.09413 25.65 2.85V5.7C25.65 6.45587 25.9503 7.18077 26.4847 7.71525C27.0192 8.24973 27.7441 8.55 28.5 8.55C29.2559 8.55 29.9808 8.24973 30.5153 7.71525C31.0497 7.18077 31.35 6.45587 31.35 5.7V2.85ZM10.5649 6.53505C10.0274 6.0159 9.30752 5.72863 8.56026 5.73513C7.813 5.74162 7.09818 6.04135 6.56977 6.56977C6.04135 7.09818 5.74162 7.813 5.73513 8.56026C5.72863 9.30752 6.0159 10.0274 6.53505 10.5649L9.38505 13.4149C9.92257 13.9341 10.6425 14.2214 11.3897 14.2149C12.137 14.2084 12.8518 13.9086 13.3802 13.3802C13.9086 12.8518 14.2084 12.137 14.2149 11.3897C14.2214 10.6425 13.9341 9.92257 13.4149 9.38505L10.5649 6.53505ZM50.465 6.53505C49.9305 6.00076 49.2057 5.70061 48.45 5.70061C47.6943 5.70061 46.9695 6.00076 46.435 6.53505L43.585 9.38505C43.0659 9.92257 42.7786 10.6425 42.7851 11.3897C42.7916 12.137 43.0914 12.8518 43.6198 13.3802C44.1482 13.9086 44.863 14.2084 45.6103 14.2149C46.3575 14.2214 47.0774 13.9341 47.615 13.4149L50.465 10.5649C50.9992 10.0305 51.2994 9.30572 51.2994 8.55C51.2994 7.79428 50.9992 7.0695 50.465 6.53505V6.53505ZM28.5 14.25C24.7207 14.25 21.0961 15.7513 18.4237 18.4237C15.7513 21.0961 14.25 24.7207 14.25 28.5C14.25 32.2793 15.7513 35.9039 18.4237 38.5763C21.0961 41.2487 24.7207 42.75 28.5 42.75C32.2793 42.75 35.9039 41.2487 38.5763 38.5763C41.2487 35.9039 42.75 32.2793 42.75 28.5C42.75 24.7207 41.2487 21.0961 38.5763 18.4237C35.9039 15.7513 32.2793 14.25 28.5 14.25V14.25ZM2.85 25.65C2.09413 25.65 1.36922 25.9503 0.834746 26.4847C0.300267 27.0192 0 27.7441 0 28.5C0 29.2559 0.300267 29.9808 0.834746 30.5153C1.36922 31.0497 2.09413 31.35 2.85 31.35H5.7C6.45587 31.35 7.18077 31.0497 7.71525 30.5153C8.24973 29.9808 8.55 29.2559 8.55 28.5C8.55 27.7441 8.24973 27.0192 7.71525 26.4847C7.18077 25.9503 6.45587 25.65 5.7 25.65H2.85ZM51.3 25.65C50.5441 25.65 49.8192 25.9503 49.2847 26.4847C48.7503 27.0192 48.45 27.7441 48.45 28.5C48.45 29.2559 48.7503 29.9808 49.2847 30.5153C49.8192 31.0497 50.5441 31.35 51.3 31.35H54.15C54.9059 31.35 55.6308 31.0497 56.1653 30.5153C56.6997 29.9808 57 29.2559 57 28.5C57 27.7441 56.6997 27.0192 56.1653 26.4847C55.6308 25.9503 54.9059 25.65 54.15 25.65H51.3ZM13.4149 47.615C13.6872 47.352 13.9043 47.0376 14.0536 46.6899C14.203 46.3421 14.2816 45.9682 14.2849 45.5897C14.2882 45.2113 14.2161 44.836 14.0728 44.4858C13.9295 44.1355 13.7179 43.8173 13.4503 43.5497C13.1827 43.2821 12.8645 43.0705 12.5142 42.9272C12.164 42.7839 11.7887 42.7118 11.4103 42.7151C11.0318 42.7184 10.6579 42.797 10.3101 42.9464C9.96244 43.0957 9.64795 43.3128 9.38505 43.585L6.53505 46.435C6.26285 46.6979 6.04573 47.0124 5.89636 47.3601C5.747 47.7079 5.66837 48.0818 5.66509 48.4603C5.6618 48.8387 5.73391 49.214 5.87721 49.5642C6.02051 49.9145 6.23213 50.2327 6.49972 50.5003C6.76732 50.7679 7.08553 50.9795 7.43578 51.1228C7.78604 51.2661 8.16132 51.3382 8.53974 51.3349C8.91816 51.3316 9.29214 51.253 9.63985 51.1036C9.98756 50.9543 10.302 50.7372 10.5649 50.465L13.4149 47.615ZM47.615 43.585C47.0774 43.0659 46.3575 42.7786 45.6103 42.7851C44.863 42.7916 44.1482 43.0914 43.6198 43.6198C43.0914 44.1482 42.7916 44.863 42.7851 45.6103C42.7786 46.3575 43.0659 47.0774 43.585 47.615L46.435 50.465C46.9726 50.9841 47.6925 51.2714 48.4397 51.2649C49.187 51.2584 49.9018 50.9586 50.4302 50.4302C50.9586 49.9018 51.2584 49.187 51.2649 48.4397C51.2714 47.6925 50.9841 46.9726 50.465 46.435L47.615 43.585ZM31.35 51.3C31.35 50.5441 31.0497 49.8192 30.5153 49.2847C29.9808 48.7503 29.2559 48.45 28.5 48.45C27.7441 48.45 27.0192 48.7503 26.4847 49.2847C25.9503 49.8192 25.65 50.5441 25.65 51.3V54.15C25.65 54.9059 25.9503 55.6308 26.4847 56.1653C27.0192 56.6997 27.7441 57 28.5 57C29.2559 57 29.9808 56.6997 30.5153 56.1653C31.0497 55.6308 31.35 54.9059 31.35 54.15V51.3Z" fill="white"/>
</svg>
