<svg width="92" height="54" viewBox="0 0 92 54" fill="none" xmlns="http://www.w3.org/2000/svg">
<path d="M8.41006 23.9587C10.1606 24.9882 12.2535 25.5575 14.432 25.5575C14.5914 25.5575 14.7508 25.5546 14.9132 25.5457C16.705 26.1652 18.6474 26.4867 20.6163 26.4867C22.6089 26.4867 24.5601 26.1593 26.3637 25.528C26.6176 25.5487 26.8715 25.5575 27.1253 25.5575C27.7187 25.5575 28.2795 25.4395 28.8434 25.3422C27.3526 26.2478 26.0154 27.3186 24.997 28.6136C19.8783 29.8496 16.2238 33.8112 16.2238 38.6372C16.2238 44.4838 21.5787 49.0649 28.4183 49.0649C29.4131 49.0649 30.399 48.9646 31.3555 48.764C32.9495 49.4248 34.7089 49.7847 36.5272 49.8083C38.6674 51.3038 41.395 52.1593 44.2702 52.1593C45.0141 52.1593 45.755 52.1003 46.4841 51.9823C49.749 53.3068 53.3739 54 57.0963 54C60.7479 54 64.3168 53.3333 67.5285 52.0678C68.1277 52.1298 68.7092 52.1593 69.2849 52.1593C73.0663 52.1593 76.647 51.0354 79.41 49.059C79.5399 49.0619 79.6727 49.0649 79.8026 49.0649C86.6422 49.0649 92 44.4838 92 38.6372C92 34.4661 89.2724 30.941 85.2253 29.2596C83.8881 24.8938 79.8853 21.472 74.5541 20.2419C70.2383 15.8761 63.4873 13.2419 56.3023 13.2419C51.9186 13.2419 47.7771 14.2006 44.2495 15.8968C44.2495 15.8584 44.2613 15.823 44.2613 15.7847C44.2613 12.2773 41.9352 9.34808 38.5641 8.15929C37.1412 6.67257 35.2018 5.61062 32.9908 5.13569C30.3164 1.9882 25.8973 0 21.0207 0C16.8526 0 13.0062 1.40413 10.2845 3.84366C7.43002 4.71091 5.19541 6.55752 4.04711 8.9351C1.5911 10.3864 0 12.8909 0 15.7906C0 20.174 3.63973 23.6549 8.41006 23.9587V23.9587ZM39.5176 28.8289C41.2326 23.2891 48.087 19.1445 56.3023 19.1445C62.8851 19.1445 68.5971 21.8053 71.4929 25.7168C76.1776 26.1593 79.8026 29.0118 79.8026 32.5044C79.8026 33.0678 79.6845 33.6077 79.5045 34.1357C79.6019 34.1327 79.6963 34.115 79.8026 34.115C83.28 34.115 86.0961 36.1416 86.0961 38.6401C86.0961 41.1386 83.28 43.1681 79.8026 43.1681C78.9879 43.1681 78.2145 43.0472 77.5031 42.8466C75.8441 44.885 72.8036 46.2625 69.2878 46.2625C68.3963 46.2625 67.5491 46.1475 66.7285 45.9823C63.9773 47.3215 60.6652 48.1032 57.0993 48.1032C53.3533 48.1032 49.9025 47.233 47.0745 45.7699C46.2273 46.0767 45.2886 46.2625 44.2731 46.2625C41.7669 46.2625 39.6209 45.2035 38.6113 43.6785C38.0032 43.8142 37.3745 43.9115 36.7073 43.9115C34.8181 43.9115 33.1502 43.3009 31.996 42.3628C30.9776 42.8702 29.7467 43.1681 28.4183 43.1681C24.9409 43.1681 22.1277 41.1386 22.1277 38.6401C22.1277 36.1416 24.9409 34.115 28.4183 34.115C28.495 34.115 28.5688 34.1298 28.6456 34.1298C29.5843 31.0413 33.3982 28.7198 37.9737 28.7198C38.505 28.7168 39.0128 28.7729 39.5176 28.8289V28.8289ZM9.09491 13.4926C9.151 13.4926 9.19528 13.5015 9.24546 13.5015C9.1569 13.236 9.09491 12.9587 9.09491 12.6785C9.09491 10.9027 10.9369 9.45723 13.3132 9.23304C14.7803 7.25074 17.6762 5.8997 21.0207 5.8997C25.1859 5.8997 28.6633 8 29.5341 10.8112C29.788 10.7817 30.0477 10.7552 30.3164 10.7552C32.6366 10.7552 34.5701 11.9292 35.0483 13.4985C35.0897 13.4985 35.128 13.4926 35.1635 13.4926C36.9317 13.4926 38.3574 14.5221 38.3574 15.7876C38.3574 17.0531 36.9287 18.0826 35.1605 18.0826C34.4875 18.0826 33.8646 17.9322 33.348 17.6755C32.7635 18.1504 31.9193 18.4631 30.9569 18.4631C30.6204 18.4631 30.2987 18.4159 29.9917 18.3451C29.481 19.118 28.3917 19.6578 27.1224 19.6578C26.6028 19.6578 26.1276 19.5605 25.6995 19.4071C24.2708 20.1475 22.5115 20.587 20.6134 20.587C18.8038 20.587 17.1242 20.1888 15.7309 19.5133C15.3146 19.5959 14.8837 19.6578 14.432 19.6578C12.649 19.6578 11.1052 18.9587 10.2639 17.9204C9.89784 18.0236 9.51114 18.0826 9.09491 18.0826C7.33261 18.0826 5.90387 17.056 5.90387 15.7906C5.90387 14.5251 7.33261 13.4926 9.09491 13.4926" fill="white"/>
</svg>
