<svg width="70" height="70" viewBox="0 0 70 70" fill="none" xmlns="http://www.w3.org/2000/svg">
<path d="M66.1495 3.85054C63.5813 1.28235 60.491 0 56.8752 0H13.1248C9.50898 0 6.41874 1.28235 3.85054 3.85054C1.28235 6.41874 0 9.50898 0 13.1248V56.8752C0 60.491 1.28235 63.5813 3.85054 66.1495C6.41874 68.7176 9.50898 70 13.1248 70H23.3345C24.0002 70 24.5012 69.9755 24.8376 69.9299C25.2289 69.8515 25.5821 69.6428 25.8396 69.3378C26.1725 68.9874 26.3407 68.4794 26.3407 67.8137L26.3161 64.7129C26.3021 62.7369 26.2951 61.1742 26.2951 60.018L25.244 60.2002C24.5783 60.3228 23.7374 60.3754 22.7179 60.3614C21.6551 60.3418 20.5958 60.2351 19.5505 60.0425C18.4378 59.8371 17.3903 59.3686 16.4953 58.6761C15.5581 57.9671 14.859 56.9894 14.4912 55.8732L14.0357 54.8221C13.6518 53.9929 13.1695 53.213 12.5992 52.4991C11.9475 51.6477 11.2853 51.0731 10.6161 50.7683L10.3008 50.5406C10.0809 50.3831 9.88094 50.1996 9.70519 49.994C9.53734 49.8032 9.39915 49.5882 9.29526 49.3563C9.20416 49.1426 9.28124 48.9674 9.523 48.8308C9.76826 48.6906 10.2062 48.6241 10.8474 48.6241L11.7583 48.7642C12.3645 48.8833 13.1178 49.2477 14.0112 49.8538C14.9154 50.4703 15.6707 51.2806 16.222 52.2258C16.9228 53.4696 17.7637 54.4191 18.7517 55.0743C19.7397 55.726 20.7348 56.0554 21.7368 56.0554C22.7389 56.0554 23.6043 55.9783 24.3366 55.8276C25.0447 55.6812 25.7328 55.4507 26.3862 55.1409C26.6595 53.1088 27.4023 51.5391 28.618 50.446C27.0427 50.2915 25.4814 50.0174 23.9476 49.6261C22.4508 49.2149 21.0113 48.6182 19.6626 47.8497C18.2515 47.0815 17.0051 46.0434 15.9943 44.7945C15.0238 43.5788 14.2249 41.9846 13.6013 40.012C12.9811 38.0359 12.6693 35.755 12.6693 33.1728C12.6693 29.4975 13.8676 26.3687 16.2676 23.783C15.1464 21.0221 15.2515 17.9213 16.5864 14.4912C17.4693 14.2144 18.7762 14.4211 20.507 15.1044C22.2378 15.7876 23.5062 16.3727 24.312 16.8562C25.1179 17.3467 25.7626 17.7566 26.2496 18.0895C29.098 17.2968 32.0416 16.8983 34.9982 16.9052C38.0079 16.9052 40.923 17.3012 43.7504 18.0895L45.4813 16.9963C46.8126 16.197 48.2169 15.5259 49.6752 14.9922C51.2869 14.3826 52.5131 14.2179 53.368 14.4912C54.7345 17.9248 54.8536 21.0221 53.7289 23.7865C56.1289 26.3687 57.3307 29.4975 57.3307 33.1763C57.3307 35.7585 57.0189 38.0464 56.3952 40.033C55.7751 42.0231 54.9692 43.6173 53.9812 44.8191C52.9931 46.0208 51.7634 47.0264 50.2918 47.8497C48.8203 48.6696 47.3908 49.2617 46.0068 49.6261C44.4732 50.0187 42.9118 50.294 41.3364 50.4495C42.9131 51.8159 43.7049 53.9707 43.7049 56.9173V67.8137C43.7049 68.3287 43.7785 68.7457 43.9326 69.0645C44.0035 69.2181 44.1045 69.3559 44.2297 69.4697C44.3549 69.5834 44.5017 69.6708 44.6614 69.7267C44.9977 69.8458 45.2921 69.9229 45.5513 69.9509C45.8106 69.986 46.182 69.9965 46.6655 69.9965H56.8752C60.491 69.9965 63.5813 68.7141 66.1495 66.146C68.7141 63.5813 70 60.4875 70 56.8717V13.1248C70 9.50898 68.7141 6.41874 66.146 3.85054H66.1495Z" fill="white"/>
</svg>
