<svg width="291" height="204" viewBox="0 0 291 204" fill="none" xmlns="http://www.w3.org/2000/svg">
<path d="M26.8121 186.712C29.679 188.101 32.8967 188.88 36.2963 188.88H254.074C257.474 188.88 260.691 188.101 263.558 186.712L177.774 105.974L149.8 129.011C147.119 131.219 143.251 131.219 140.57 129.011L112.597 105.974L26.8121 186.712ZM16.596 176.397C16.6633 176.329 16.7321 176.262 16.8026 176.195L101.299 96.6696L17.1631 27.3814C16.9796 27.2303 16.8054 27.0721 16.6407 26.9075C15.2803 29.7504 14.5185 32.9344 14.5185 36.2963V167.103C14.5185 170.428 15.2637 173.578 16.596 176.397V176.397ZM273.774 176.397C275.107 173.578 275.852 170.428 275.852 167.103V36.2963C275.852 32.9344 275.09 29.7504 273.73 26.9076C273.565 27.0721 273.391 27.2303 273.207 27.3814L189.072 96.6696L273.568 176.195C273.638 176.262 273.707 176.329 273.774 176.397ZM263.43 16.6251C260.596 15.2745 257.423 14.5185 254.074 14.5185H36.2963C32.9472 14.5185 29.7748 15.2745 26.9402 16.6251L145.185 114.003L263.43 16.6251ZM36.2963 0H254.074C274.12 0 290.37 16.2504 290.37 36.2963V167.103C290.37 187.148 274.12 203.399 254.074 203.399H36.2963C16.2504 203.399 0 187.148 0 167.103V36.2963C0 16.2504 16.2504 0 36.2963 0V0Z" fill="black"/>
</svg>
