<svg width="67" height="35" viewBox="0 0 67 35" fill="none" xmlns="http://www.w3.org/2000/svg">
<path d="M2.50666 6.17647H63.9198C65.3035 6.17647 66.4264 4.79294 66.4264 3.08824C66.4264 1.38353 65.3035 0 63.9198 0H2.50666C1.12298 0 0 1.38353 0 3.08824C0 4.79294 1.12298 6.17647 2.50666 6.17647Z" fill="white"/>
<path d="M2.50666 20.5882H63.9198C65.3035 20.5882 66.4264 19.2047 66.4264 17.5C66.4264 15.7953 65.3035 14.4117 63.9198 14.4117H2.50666C1.12298 14.4117 0 15.7953 0 17.5C0 19.2047 1.12298 20.5882 2.50666 20.5882Z" fill="white"/>
<path d="M2.50666 35H63.9198C65.3035 35 66.4264 33.6165 66.4264 31.9118C66.4264 30.2071 65.3035 28.8235 63.9198 28.8235H2.50666C1.12298 28.8235 0 30.2071 0 31.9118C0 33.6165 1.12298 35 2.50666 35Z" fill="white"/>
</svg>
