<svg width="291" height="288" viewBox="0 0 291 288" fill="none" xmlns="http://www.w3.org/2000/svg">
<path d="M0 180.162C9.79963 179.71 18.0916 175.941 24.876 168.855C31.6603 161.769 35.1279 153.326 35.1279 143.527C35.1279 153.326 38.4447 161.769 45.229 168.855C52.0134 175.941 60.3054 179.71 70.105 180.162C60.3054 180.615 52.0134 184.384 45.229 191.47C38.4447 198.556 35.1279 206.998 35.1279 216.798C35.1279 206.998 31.8111 198.556 24.876 191.47C18.0916 184.384 9.79963 180.615 0 180.162V180.162ZM35.1279 71.6126C54.1241 70.7081 70.2558 63.3207 83.523 49.4504C96.7901 35.5802 103.424 19.147 103.424 0C103.424 19.147 110.057 35.5802 123.325 49.4504C136.592 63.3207 152.723 70.5573 171.87 71.6126C159.357 72.2157 147.899 75.6833 137.346 82.3168C126.943 88.7997 118.651 97.544 112.47 108.399C106.439 119.254 103.424 130.863 103.424 143.527C103.424 124.38 96.7901 107.796 83.523 93.9256C70.2558 79.9046 54.1241 72.5172 35.1279 71.6126ZM85.1814 233.985C99.5039 233.382 111.716 227.804 121.666 217.401C131.617 206.998 136.592 194.636 136.592 180.162C136.592 194.636 141.567 206.998 151.517 217.401C161.468 227.804 173.529 233.382 187.851 233.985C173.529 234.588 161.468 240.166 151.517 250.569C141.567 260.972 136.592 273.334 136.592 287.807C136.592 273.334 131.617 260.972 121.666 250.569C111.565 240.166 99.5039 234.739 85.1814 233.985V233.985ZM187.851 162.523C202.174 161.92 214.235 156.342 224.185 145.939C234.136 135.536 238.96 123.174 238.96 108.55C238.96 123.023 243.935 135.386 253.886 145.788C263.836 156.191 276.048 161.769 290.37 162.372C276.048 162.975 263.836 168.554 253.886 178.956C243.935 189.359 238.96 201.722 238.96 216.195C238.96 201.722 233.985 189.359 224.185 178.956C214.235 168.704 202.174 163.126 187.851 162.523V162.523Z" fill="black"/>
</svg>
